<mxfile host="app.diagrams.net" modified="2021-07-28T15:29:08.829Z" agent="5.0 (Windows NT 10.0; Win64; x64) AppleWebKit/537.36 (KHTML, like Gecko) Chrome/92.0.4515.107 Safari/537.36" etag="0rxGmdmUyTIRIzP8g0sJ" version="14.9.2" type="github">
  <diagram id="C5RBs43oDa-KdzZeNtuy" name="Page-1">
    <mxGraphModel dx="868" dy="393" grid="0" gridSize="10" guides="1" tooltips="1" connect="1" arrows="1" fold="1" page="1" pageScale="1" pageWidth="827" pageHeight="1169" math="0" shadow="1">
      <root>
        <mxCell id="WIyWlLk6GJQsqaUBKTNV-0" />
        <mxCell id="WIyWlLk6GJQsqaUBKTNV-1" parent="WIyWlLk6GJQsqaUBKTNV-0" />
        <mxCell id="7Q3s9tm2OjTAYThiGvy6-22" style="edgeStyle=orthogonalEdgeStyle;rounded=0;orthogonalLoop=1;jettySize=auto;html=1;exitX=1;exitY=0.25;exitDx=0;exitDy=0;" parent="WIyWlLk6GJQsqaUBKTNV-1" source="7Q3s9tm2OjTAYThiGvy6-0" target="7Q3s9tm2OjTAYThiGvy6-6" edge="1">
          <mxGeometry relative="1" as="geometry" />
        </mxCell>
        <mxCell id="7Q3s9tm2OjTAYThiGvy6-23" style="edgeStyle=orthogonalEdgeStyle;rounded=0;orthogonalLoop=1;jettySize=auto;html=1;exitX=1;exitY=0.5;exitDx=0;exitDy=0;entryX=0;entryY=0.5;entryDx=0;entryDy=0;" parent="WIyWlLk6GJQsqaUBKTNV-1" source="7Q3s9tm2OjTAYThiGvy6-0" target="7Q3s9tm2OjTAYThiGvy6-7" edge="1">
          <mxGeometry relative="1" as="geometry" />
        </mxCell>
        <mxCell id="7Q3s9tm2OjTAYThiGvy6-24" style="edgeStyle=orthogonalEdgeStyle;rounded=0;orthogonalLoop=1;jettySize=auto;html=1;exitX=1;exitY=0.5;exitDx=0;exitDy=0;entryX=0;entryY=0.5;entryDx=0;entryDy=0;" parent="WIyWlLk6GJQsqaUBKTNV-1" source="7Q3s9tm2OjTAYThiGvy6-0" target="7Q3s9tm2OjTAYThiGvy6-8" edge="1">
          <mxGeometry relative="1" as="geometry" />
        </mxCell>
        <mxCell id="7Q3s9tm2OjTAYThiGvy6-25" style="edgeStyle=orthogonalEdgeStyle;rounded=0;orthogonalLoop=1;jettySize=auto;html=1;exitX=1;exitY=0.75;exitDx=0;exitDy=0;" parent="WIyWlLk6GJQsqaUBKTNV-1" source="7Q3s9tm2OjTAYThiGvy6-0" target="7Q3s9tm2OjTAYThiGvy6-9" edge="1">
          <mxGeometry relative="1" as="geometry" />
        </mxCell>
        <mxCell id="7Q3s9tm2OjTAYThiGvy6-0" value="&lt;h2&gt;Vi&amp;nbsp;&lt;/h2&gt;&lt;h2&gt;Điều&amp;nbsp;&lt;/h2&gt;&lt;h2&gt;Khiển&lt;/h2&gt;" style="rounded=1;whiteSpace=wrap;html=1;" parent="WIyWlLk6GJQsqaUBKTNV-1" vertex="1">
          <mxGeometry x="360" y="80" width="120" height="200" as="geometry" />
        </mxCell>
        <mxCell id="7Q3s9tm2OjTAYThiGvy6-16" style="edgeStyle=orthogonalEdgeStyle;rounded=0;orthogonalLoop=1;jettySize=auto;html=1;exitX=1;exitY=0.5;exitDx=0;exitDy=0;entryX=0;entryY=0.25;entryDx=0;entryDy=0;" parent="WIyWlLk6GJQsqaUBKTNV-1" source="7Q3s9tm2OjTAYThiGvy6-1" target="7Q3s9tm2OjTAYThiGvy6-0" edge="1">
          <mxGeometry relative="1" as="geometry" />
        </mxCell>
        <mxCell id="7Q3s9tm2OjTAYThiGvy6-1" value="&lt;h3&gt;Reset&lt;/h3&gt;" style="rounded=1;whiteSpace=wrap;html=1;" parent="WIyWlLk6GJQsqaUBKTNV-1" vertex="1">
          <mxGeometry x="200" y="85" width="80" height="38" as="geometry" />
        </mxCell>
        <mxCell id="7Q3s9tm2OjTAYThiGvy6-17" style="edgeStyle=orthogonalEdgeStyle;rounded=0;orthogonalLoop=1;jettySize=auto;html=1;exitX=1;exitY=0.5;exitDx=0;exitDy=0;entryX=0;entryY=0.5;entryDx=0;entryDy=0;" parent="WIyWlLk6GJQsqaUBKTNV-1" source="7Q3s9tm2OjTAYThiGvy6-2" target="7Q3s9tm2OjTAYThiGvy6-0" edge="1">
          <mxGeometry relative="1" as="geometry" />
        </mxCell>
        <mxCell id="7Q3s9tm2OjTAYThiGvy6-2" value="&lt;h3&gt;Wifi&lt;/h3&gt;" style="rounded=1;whiteSpace=wrap;html=1;" parent="WIyWlLk6GJQsqaUBKTNV-1" vertex="1">
          <mxGeometry x="138" y="134" width="120" height="60" as="geometry" />
        </mxCell>
        <mxCell id="7Q3s9tm2OjTAYThiGvy6-20" style="edgeStyle=orthogonalEdgeStyle;rounded=0;orthogonalLoop=1;jettySize=auto;html=1;exitX=1;exitY=0.5;exitDx=0;exitDy=0;" parent="WIyWlLk6GJQsqaUBKTNV-1" source="7Q3s9tm2OjTAYThiGvy6-3" target="7Q3s9tm2OjTAYThiGvy6-0" edge="1">
          <mxGeometry relative="1" as="geometry" />
        </mxCell>
        <mxCell id="7Q3s9tm2OjTAYThiGvy6-3" value="&lt;h3&gt;Truyền nối tiếp&lt;/h3&gt;" style="rounded=1;whiteSpace=wrap;html=1;" parent="WIyWlLk6GJQsqaUBKTNV-1" vertex="1">
          <mxGeometry x="138" y="214" width="120" height="60" as="geometry" />
        </mxCell>
        <mxCell id="7Q3s9tm2OjTAYThiGvy6-19" style="edgeStyle=orthogonalEdgeStyle;rounded=0;orthogonalLoop=1;jettySize=auto;html=1;exitX=1;exitY=0.5;exitDx=0;exitDy=0;entryX=0;entryY=0.75;entryDx=0;entryDy=0;" parent="WIyWlLk6GJQsqaUBKTNV-1" source="7Q3s9tm2OjTAYThiGvy6-4" target="7Q3s9tm2OjTAYThiGvy6-0" edge="1">
          <mxGeometry relative="1" as="geometry" />
        </mxCell>
        <mxCell id="7Q3s9tm2OjTAYThiGvy6-4" value="&lt;h3&gt;Sensor&lt;/h3&gt;" style="rounded=1;whiteSpace=wrap;html=1;" parent="WIyWlLk6GJQsqaUBKTNV-1" vertex="1">
          <mxGeometry x="160" y="291" width="120" height="60" as="geometry" />
        </mxCell>
        <mxCell id="7Q3s9tm2OjTAYThiGvy6-6" value="&lt;h3&gt;LCD&lt;/h3&gt;" style="rounded=1;whiteSpace=wrap;html=1;" parent="WIyWlLk6GJQsqaUBKTNV-1" vertex="1">
          <mxGeometry x="559" y="40" width="161" height="50" as="geometry" />
        </mxCell>
        <mxCell id="7Q3s9tm2OjTAYThiGvy6-7" value="&lt;h3&gt;Buzzer&lt;/h3&gt;" style="rounded=1;whiteSpace=wrap;html=1;" parent="WIyWlLk6GJQsqaUBKTNV-1" vertex="1">
          <mxGeometry x="579.5" y="110" width="120" height="60" as="geometry" />
        </mxCell>
        <mxCell id="7Q3s9tm2OjTAYThiGvy6-8" value="&lt;h3&gt;Led&lt;/h3&gt;" style="rounded=1;whiteSpace=wrap;html=1;" parent="WIyWlLk6GJQsqaUBKTNV-1" vertex="1">
          <mxGeometry x="579.5" y="190" width="120" height="60" as="geometry" />
        </mxCell>
        <mxCell id="7Q3s9tm2OjTAYThiGvy6-9" value="&lt;h3&gt;Lock&lt;/h3&gt;" style="rounded=1;whiteSpace=wrap;html=1;" parent="WIyWlLk6GJQsqaUBKTNV-1" vertex="1">
          <mxGeometry x="560" y="270" width="140" height="60" as="geometry" />
        </mxCell>
        <mxCell id="7Q3s9tm2OjTAYThiGvy6-21" style="edgeStyle=orthogonalEdgeStyle;rounded=0;orthogonalLoop=1;jettySize=auto;html=1;exitX=0.5;exitY=0;exitDx=0;exitDy=0;" parent="WIyWlLk6GJQsqaUBKTNV-1" source="7Q3s9tm2OjTAYThiGvy6-10" target="7Q3s9tm2OjTAYThiGvy6-0" edge="1">
          <mxGeometry relative="1" as="geometry" />
        </mxCell>
        <mxCell id="7Q3s9tm2OjTAYThiGvy6-10" value="&lt;h2&gt;Nguồn&lt;/h2&gt;" style="rounded=0;whiteSpace=wrap;html=1;" parent="WIyWlLk6GJQsqaUBKTNV-1" vertex="1">
          <mxGeometry x="360" y="330" width="120" height="60" as="geometry" />
        </mxCell>
        <mxCell id="2I77XPFMQtYRdQTO-3VM-1" style="edgeStyle=orthogonalEdgeStyle;rounded=0;orthogonalLoop=1;jettySize=auto;html=1;exitX=1;exitY=0.5;exitDx=0;exitDy=0;entryX=0;entryY=0.25;entryDx=0;entryDy=0;" edge="1" parent="WIyWlLk6GJQsqaUBKTNV-1" source="2I77XPFMQtYRdQTO-3VM-0" target="7Q3s9tm2OjTAYThiGvy6-0">
          <mxGeometry relative="1" as="geometry" />
        </mxCell>
        <mxCell id="2I77XPFMQtYRdQTO-3VM-0" value="&lt;h3&gt;Clear&lt;/h3&gt;" style="rounded=1;whiteSpace=wrap;html=1;" vertex="1" parent="WIyWlLk6GJQsqaUBKTNV-1">
          <mxGeometry x="200" y="33" width="80" height="38" as="geometry" />
        </mxCell>
      </root>
    </mxGraphModel>
  </diagram>
</mxfile>
